<svg width="48" height="48" viewBox="0 0 48 48" fill="none" xmlns="http://www.w3.org/2000/svg">
<g clip-path="url(#clip0_72_450)">
<mask id="mask0_72_450" style="mask-type:luminance" maskUnits="userSpaceOnUse" x="0" y="0" width="48" height="48">
<path d="M48 0H0V48H48V0Z" fill="white"/>
</mask>
<g mask="url(#mask0_72_450)">
<path d="M9.79685 35.9997C9.67499 35.9997 9.58127 35.9528 9.51563 35.8591C9.45935 35.7653 9.43127 35.5778 9.43127 35.2966V16.5232C9.43127 16.0262 9.55313 15.7778 9.79685 15.7778H11.9344C12.1313 15.7778 12.3 15.9607 12.4406 16.3262L17.2078 29.1372C17.2265 29.2028 17.2547 29.1841 17.2922 29.081L17.3063 28.9544V16.5232C17.3063 16.0262 17.4328 15.7778 17.686 15.7778H19.3594C19.5937 15.7778 19.711 16.0262 19.711 16.5232V35.3528C19.711 35.6341 19.6828 35.8169 19.6265 35.9012C19.5703 35.9762 19.4813 36.0137 19.3594 36.0137H17.8406C17.7469 36.0137 17.6437 35.9575 17.5313 35.845C17.4281 35.7325 17.3437 35.5919 17.2781 35.4232L11.9765 21.5857C11.939 21.5107 11.911 21.5341 11.8922 21.656C11.8828 21.6841 11.8781 21.7169 11.8781 21.7544V35.2966C11.8781 35.5778 11.8453 35.7653 11.7797 35.8591C11.7235 35.9528 11.6297 35.9997 11.4985 35.9997H9.79685Z" fill="#90A086"/>
<path d="M22.3125 44.9999C22.0875 44.9999 21.9093 44.9155 21.7781 44.7468C21.6656 44.5593 21.6093 44.1936 21.6093 43.6499V9.7874C21.6093 9.31862 21.5063 9.08426 21.3 9.08426H16.4063C16.2187 9.08426 16.0781 9.0749 15.9843 9.05618C15.9093 9.01868 15.8343 8.9249 15.7593 8.7749C15.7031 8.60618 15.675 8.35304 15.675 8.01554V5.79365C15.675 5.2874 15.7313 4.95927 15.8437 4.80927C15.9563 4.64053 16.1437 4.55615 16.4063 4.55615H32.2968C32.5406 4.55615 32.7187 4.64053 32.8313 4.80927C32.9437 4.95927 33 5.2874 33 5.79365V8.01554C33 8.48426 32.9437 8.78426 32.8313 8.91554C32.7375 9.02804 32.5593 9.08426 32.2968 9.08426H27.4875C27.2813 9.08426 27.1781 9.31862 27.1781 9.7874V43.6499C27.1781 44.2124 27.1125 44.578 26.9813 44.7468C26.8687 44.9155 26.6906 44.9999 26.4468 44.9999H22.3125Z" fill="#699FBA"/>
<path d="M33.9235 15.5532C35.686 15.5532 37.0594 16.1954 38.0437 17.4798C38.1375 17.6016 38.1844 17.7469 38.1844 17.9157C38.1844 18.2438 38.0437 18.5907 37.7625 18.9564C37.4907 19.3219 37.261 19.5048 37.0735 19.5048C37.0172 19.5048 36.975 19.486 36.9469 19.4485C36.1125 18.436 35.1187 17.9298 33.9657 17.9298C33.3187 17.9298 32.7985 18.2064 32.4047 18.7594C32.011 19.3032 31.8141 19.9688 31.8141 20.7564C31.8141 21.4969 31.9828 22.1016 32.3203 22.5704C32.6578 23.0391 33.1407 23.4751 33.7687 23.8782L35.5547 25.0314C37.4391 26.2501 38.3813 28.0314 38.3813 30.3751C38.3813 32.0907 37.9453 33.4923 37.0735 34.5798C36.2016 35.6673 35.0297 36.211 33.5578 36.211C31.5703 36.211 30.0047 35.3532 28.861 33.6376C28.8047 33.5532 28.7766 33.4454 28.7766 33.3141C28.7766 32.986 28.9078 32.6298 29.1703 32.2454C29.4422 31.8516 29.7 31.6548 29.9437 31.6548C30.0375 31.6548 30.1219 31.6969 30.1969 31.7814C31.2469 33.1219 32.3672 33.7923 33.5578 33.7923C34.2891 33.7923 34.861 33.511 35.2735 32.9485C35.686 32.3766 35.8922 31.6548 35.8922 30.7829C35.8922 29.9954 35.7282 29.3579 35.4 28.8704C35.0719 28.3735 34.5703 27.9048 33.8953 27.4641L32.0953 26.2548C31.7016 25.9923 31.3594 25.7204 31.0687 25.4391C30.7782 25.1579 30.4969 24.8204 30.225 24.4266C29.9625 24.0235 29.7563 23.5548 29.6063 23.0204C29.4657 22.4766 29.3953 21.8814 29.3953 21.2344C29.3953 19.5469 29.8032 18.1782 30.6187 17.1282C31.4437 16.0782 32.5453 15.5532 33.9235 15.5532Z" fill="#90A086"/>
</g>
</g>
<defs>
<clipPath id="clip0_72_450">
<rect width="48" height="48" fill="white"/>
</clipPath>
</defs>
</svg>
